<svg xmlns="http://www.w3.org/2000/svg" width="400" height="500" fill="none" stroke="purple">
  <circle cx="160" cy="250" r ="150"  />
  <line x1="160" y1="250" x2="250" y2="370" />
  <line x1="30" y1="176" x2="290" y2="324" />
  <line x1="58" y1="140" x2="262" y2="140" />
  <path d=" M 216 389 A 150 150 0 0 1 94 385" stroke="blue" stroke-width="4"/>
  <path d=" M 160 250 L 271 150 A 150 150 0 0 1 310 260 L 160 250" stroke="gray" stroke-width="3" fill="orange" />
  <path d="M 81 377 A 150 150 0 0 1 23 189 L 81 377 " fill="pink" stroke="gray" stroke-width="3"/>
  <line x1="20" y1="160" x2="150" y2="80" stroke="gray" stroke-width="3"/>
  <g stroke="black">
    
  <line x1="160" y1="400" x2="160" y2="450" />  
  <line x1="40" y1="300" x2="40" y2="400" />
  <line x1="270" y1="312" x2="300" y2="360" />
  <line x1="227" y1="340" x2="227" y2="420" />
  <line x1="160" y1="250" x2="160" y2="290" />
    <line x1="270" y1="200" x2="320" y2="150" />
    <line x1="230" y1="140" x2="270" y2="80" />
    <line x1="30" y1="155" x2="40" y2="80" />
    <line x1="160" y1="100" x2="200" y2="50" />
  </g>
</svg>